<svg xmlns="http://www.w3.org/2000/svg" width="540" height="300" viewBox="0 0 540 300" role="img" aria-label="Nova, level 1 Egg - Gitagotchi developer tool" font-family="ui-monospace, 'SF Mono', SFMono-Regular, Menlo, Consolas, 'Liberation Mono', monospace">
<title>Nova, level 1 Egg - Gitagotchi developer tool</title>
<defs>
<linearGradient id="bg" x1="0" y1="0" x2="1" y2="1"><stop offset="0" stop-color="#0d1117"/><stop offset="1" stop-color="#161b22"/></linearGradient>
<radialGradient id="glow"><stop offset="0" stop-color="#3fb950" stop-opacity="0.18"/><stop offset="50%" stop-color="#e8dcc0" stop-opacity="0.10"/><stop offset="100%" stop-color="#0d1117" stop-opacity="0"/></radialGradient>
<pattern id="dots" width="10" height="10" patternUnits="userSpaceOnUse"><rect width="2" height="2" fill="#ffffff" opacity="0.04"/></pattern>
</defs>
<style>
.bob{animation:bob 1.2s steps(1) infinite alternate}
@keyframes bob{from{transform:translateY(0)}to{transform:translateY(-4px)}}
@media (prefers-reduced-motion:reduce){.bob{animation:none}}
</style>
<rect x="0.5" y="0.5" width="539" height="299" rx="16" fill="url(#bg)" stroke="#30363d"/>
<rect x="0.5" y="0.5" width="539" height="299" rx="16" fill="url(#dots)"/>
<text x="24" y="30" font-size="10" letter-spacing="3" fill="#6e7681">GITAGOTCHI</text>
<text x="122" y="30" font-size="10" letter-spacing="1" fill="#3fb950">feature/builder</text>
<text x="516" y="30" font-size="10" fill="#6e7681" text-anchor="end">@sarawagh27</text>

<!-- Left: Pixel Pet & Stage -->
<circle cx="116" cy="116" r="82" fill="url(#glow)"/>
<g transform="translate(36 30)" shape-rendering="crispEdges">
  <g class="bob">
    <rect x="60" y="40" width="40" height="10" fill="#151b2e"/>
    <rect x="50" y="50" width="10" height="10" fill="#151b2e"/>
    <rect x="60" y="50" width="10" height="10" fill="#3fb950"/>
    <rect x="70" y="50" width="20" height="10" fill="#f6efe0"/>
    <rect x="90" y="50" width="10" height="10" fill="#d8ccb2"/>
    <rect x="100" y="50" width="10" height="10" fill="#151b2e"/>
    <rect x="40" y="60" width="10" height="10" fill="#151b2e"/>
    <rect x="50" y="60" width="20" height="10" fill="#fffaf0"/>
    <rect x="70" y="60" width="20" height="10" fill="#f6efe0"/>
    <rect x="90" y="60" width="10" height="10" fill="#3fb950"/>
    <rect x="100" y="60" width="10" height="10" fill="#d8ccb2"/>
    <rect x="110" y="60" width="10" height="10" fill="#151b2e"/>
    <rect x="40" y="70" width="10" height="10" fill="#151b2e"/>
    <rect x="50" y="70" width="20" height="10" fill="#fffaf0"/>
    <rect x="70" y="70" width="20" height="10" fill="#f6efe0"/>
    <rect x="90" y="70" width="20" height="10" fill="#d8ccb2"/>
    <rect x="110" y="70" width="10" height="10" fill="#151b2e"/>
    <rect x="30" y="80" width="10" height="10" fill="#151b2e"/>
    <rect x="40" y="80" width="30" height="10" fill="#fffaf0"/>
    <rect x="70" y="80" width="20" height="10" fill="#f6efe0"/>
    <rect x="90" y="80" width="30" height="10" fill="#d8ccb2"/>
    <rect x="120" y="80" width="10" height="10" fill="#151b2e"/>
    <rect x="30" y="90" width="10" height="10" fill="#151b2e"/>
    <rect x="40" y="90" width="30" height="10" fill="#fffaf0"/>
    <rect x="70" y="90" width="20" height="10" fill="#f6efe0"/>
    <rect x="90" y="90" width="30" height="10" fill="#d8ccb2"/>
    <rect x="120" y="90" width="10" height="10" fill="#151b2e"/>
    <rect x="30" y="100" width="10" height="10" fill="#151b2e"/>
    <rect x="40" y="100" width="10" height="10" fill="#3fb950"/>
    <rect x="50" y="100" width="20" height="10" fill="#fffaf0"/>
    <rect x="70" y="100" width="20" height="10" fill="#f6efe0"/>
    <rect x="90" y="100" width="30" height="10" fill="#d8ccb2"/>
    <rect x="120" y="100" width="10" height="10" fill="#151b2e"/>
    <rect x="30" y="110" width="10" height="10" fill="#151b2e"/>
    <rect x="40" y="110" width="30" height="10" fill="#f6efe0"/>
    <rect x="70" y="110" width="10" height="10" fill="#3fb950"/>
    <rect x="80" y="110" width="10" height="10" fill="#f6efe0"/>
    <rect x="90" y="110" width="30" height="10" fill="#d8ccb2"/>
    <rect x="120" y="110" width="10" height="10" fill="#151b2e"/>
    <rect x="30" y="120" width="10" height="10" fill="#151b2e"/>
    <rect x="40" y="120" width="50" height="10" fill="#f6efe0"/>
    <rect x="90" y="120" width="10" height="10" fill="#d8ccb2"/>
    <rect x="100" y="120" width="10" height="10" fill="#3fb950"/>
    <rect x="110" y="120" width="10" height="10" fill="#d8ccb2"/>
    <rect x="120" y="120" width="10" height="10" fill="#151b2e"/>
    <rect x="40" y="130" width="10" height="10" fill="#151b2e"/>
    <rect x="50" y="130" width="60" height="10" fill="#d8ccb2"/>
    <rect x="110" y="130" width="10" height="10" fill="#151b2e"/>
    <rect x="40" y="140" width="20" height="10" fill="#151b2e"/>
    <rect x="60" y="140" width="40" height="10" fill="#d8ccb2"/>
    <rect x="100" y="140" width="20" height="10" fill="#151b2e"/>
    <rect x="60" y="150" width="40" height="10" fill="#151b2e"/>
  </g>
</g>
<rect x="90" y="202" width="52" height="20" rx="10" fill="#e8dcc0" fill-opacity="0.14" stroke="#e8dcc0" stroke-opacity="0.5"/>
<text x="116" y="216" font-size="9.5" font-weight="700" letter-spacing="1.5" fill="#e8dcc0" text-anchor="middle">EGG</text>
<text x="116" y="234" font-size="7.5" letter-spacing="0.8" fill="#484f58" text-anchor="middle"><tspan fill="#e8dcc0" font-weight="600">EGG</tspan> → SPROUT → SPECIALIZATION</text>

<!-- Right: Identity, Real Git Telemetry, 7-Day Activity -->
<text x="236" y="66" font-size="22" font-weight="700" letter-spacing="1" fill="#e6edf3">NOVA</text>
<rect x="446" y="46" width="70" height="26" rx="6" fill="#e8dcc0" fill-opacity="0.16" stroke="#e8dcc0" stroke-opacity="0.6"/>
<text x="481" y="64" font-size="13" font-weight="700" fill="#e8dcc0" text-anchor="middle">LV 01</text>

<!-- Neutral Git Telemetry -->
<g transform="translate(236 88)">
  <text x="0" y="14" font-size="9" font-weight="700" letter-spacing="1.5" fill="#8b949e">COMMITS</text>
  <text x="0" y="40" font-size="22" font-weight="700" fill="#e6edf3">—</text>

  <text x="100" y="14" font-size="9" font-weight="700" letter-spacing="1.5" fill="#8b949e">PRs</text>
  <text x="100" y="40" font-size="22" font-weight="700" fill="#e6edf3">—</text>

  <text x="195" y="14" font-size="9" font-weight="700" letter-spacing="1.5" fill="#8b949e">ISSUES</text>
  <text x="195" y="40" font-size="22" font-weight="700" fill="#e6edf3">—</text>
</g>

<line x1="236" y1="152" x2="516" y2="152" stroke="#21262d" stroke-width="1"/>

<!-- 7-Day Activity Track -->
<text x="236" y="174" font-size="9" font-weight="700" letter-spacing="1.5" fill="#8b949e">7-DAY ACTIVITY</text>
<g transform="translate(236 182)">
  <line x1="12" y1="14" x2="268" y2="14" stroke="#30363d" stroke-width="2" stroke-linecap="round"/>
  <circle cx="12" cy="14" r="3.2" fill="#161b22" stroke="#484f58" stroke-width="1.2"/>
  <text x="12" y="30" font-size="8" font-weight="600" fill="#6e7681" text-anchor="middle">S</text>
  <circle cx="54" cy="14" r="3.2" fill="#161b22" stroke="#484f58" stroke-width="1.2"/>
  <text x="54" y="30" font-size="8" font-weight="600" fill="#6e7681" text-anchor="middle">M</text>
  <circle cx="96" cy="14" r="3.2" fill="#161b22" stroke="#484f58" stroke-width="1.2"/>
  <text x="96" y="30" font-size="8" font-weight="600" fill="#6e7681" text-anchor="middle">T</text>
  <circle cx="140" cy="14" r="3.2" fill="#161b22" stroke="#484f58" stroke-width="1.2"/>
  <text x="140" y="30" font-size="8" font-weight="600" fill="#6e7681" text-anchor="middle">W</text>
  <circle cx="182" cy="14" r="3.2" fill="#161b22" stroke="#484f58" stroke-width="1.2"/>
  <text x="182" y="30" font-size="8" font-weight="600" fill="#6e7681" text-anchor="middle">T</text>
  <circle cx="226" cy="14" r="3.2" fill="#161b22" stroke="#484f58" stroke-width="1.2"/>
  <text x="226" y="30" font-size="8" font-weight="600" fill="#6e7681" text-anchor="middle">F</text>
  <circle cx="268" cy="14" r="3.2" fill="#161b22" stroke="#484f58" stroke-width="1.2"/>
  <circle cx="268" cy="14" r="6.5" fill="none" stroke="#e8dcc0" stroke-width="1" stroke-dasharray="2 1.5"/>
  <text x="268" y="30" font-size="8" font-weight="600" fill="#e8dcc0" text-anchor="middle">S</text>
</g>

<!-- Bottom Status -->
<rect x="24" y="248" width="492" height="32" rx="8" fill="#161b22" stroke="#30363d"/>
<text x="270" y="269" font-size="11.5" fill="#c9d1d9" text-anchor="middle">“awaiting first push.”</text>
</svg>
